<mxfile host="app.diagrams.net" agent="Mozilla/5.0 (Windows NT 10.0; WOW64) AppleWebKit/537.36 (KHTML, like Gecko) Chrome/94.0.4606.71 Safari/537.36 SE 2.X MetaSr 1.0" version="25.0.3">
  <diagram name="第 1 页" id="semeRPi2QWsuBYRKRvER">
    <mxGraphModel dx="1434" dy="773" grid="1" gridSize="10" guides="1" tooltips="1" connect="1" arrows="1" fold="1" page="1" pageScale="1" pageWidth="1169" pageHeight="827" math="0" shadow="0">
      <root>
        <mxCell id="0" />
        <mxCell id="1" parent="0" />
        <mxCell id="ORX7oJTABNwnEh1Alo0J-10" style="edgeStyle=orthogonalEdgeStyle;rounded=0;orthogonalLoop=1;jettySize=auto;html=1;entryX=0;entryY=0.5;entryDx=0;entryDy=0;" edge="1" parent="1" source="ORX7oJTABNwnEh1Alo0J-1" target="ORX7oJTABNwnEh1Alo0J-8">
          <mxGeometry relative="1" as="geometry" />
        </mxCell>
        <mxCell id="ORX7oJTABNwnEh1Alo0J-1" value="用户请求&lt;div&gt;或&lt;/div&gt;&lt;div&gt;定时任务（手工生成链路ID）&lt;/div&gt;" style="rounded=0;whiteSpace=wrap;html=1;" vertex="1" parent="1">
          <mxGeometry y="150" width="170" height="100" as="geometry" />
        </mxCell>
        <mxCell id="ORX7oJTABNwnEh1Alo0J-5" style="edgeStyle=orthogonalEdgeStyle;rounded=0;orthogonalLoop=1;jettySize=auto;html=1;entryX=0.5;entryY=0;entryDx=0;entryDy=0;" edge="1" parent="1" source="ORX7oJTABNwnEh1Alo0J-2" target="ORX7oJTABNwnEh1Alo0J-3">
          <mxGeometry relative="1" as="geometry" />
        </mxCell>
        <mxCell id="ORX7oJTABNwnEh1Alo0J-6" style="edgeStyle=orthogonalEdgeStyle;rounded=0;orthogonalLoop=1;jettySize=auto;html=1;exitX=0.5;exitY=1;exitDx=0;exitDy=0;entryX=0.5;entryY=0;entryDx=0;entryDy=0;" edge="1" parent="1" source="ORX7oJTABNwnEh1Alo0J-2" target="ORX7oJTABNwnEh1Alo0J-4">
          <mxGeometry relative="1" as="geometry" />
        </mxCell>
        <mxCell id="ORX7oJTABNwnEh1Alo0J-2" value="日志收集" style="rounded=0;whiteSpace=wrap;html=1;" vertex="1" parent="1">
          <mxGeometry x="470" y="400" width="230" height="96" as="geometry" />
        </mxCell>
        <mxCell id="ORX7oJTABNwnEh1Alo0J-25" style="edgeStyle=orthogonalEdgeStyle;rounded=0;orthogonalLoop=1;jettySize=auto;html=1;exitX=0.5;exitY=1;exitDx=0;exitDy=0;entryX=0;entryY=0.5;entryDx=0;entryDy=0;" edge="1" parent="1" source="ORX7oJTABNwnEh1Alo0J-3" target="ORX7oJTABNwnEh1Alo0J-24">
          <mxGeometry relative="1" as="geometry" />
        </mxCell>
        <mxCell id="ORX7oJTABNwnEh1Alo0J-3" value="CK" style="rounded=0;whiteSpace=wrap;html=1;" vertex="1" parent="1">
          <mxGeometry x="410" y="560" width="120" height="60" as="geometry" />
        </mxCell>
        <mxCell id="ORX7oJTABNwnEh1Alo0J-26" style="edgeStyle=orthogonalEdgeStyle;rounded=0;orthogonalLoop=1;jettySize=auto;html=1;exitX=0.5;exitY=1;exitDx=0;exitDy=0;entryX=0;entryY=0.5;entryDx=0;entryDy=0;" edge="1" parent="1" source="ORX7oJTABNwnEh1Alo0J-4" target="ORX7oJTABNwnEh1Alo0J-24">
          <mxGeometry relative="1" as="geometry" />
        </mxCell>
        <mxCell id="ORX7oJTABNwnEh1Alo0J-4" value="ES" style="rounded=0;whiteSpace=wrap;html=1;" vertex="1" parent="1">
          <mxGeometry x="640" y="560" width="120" height="60" as="geometry" />
        </mxCell>
        <mxCell id="ORX7oJTABNwnEh1Alo0J-19" style="edgeStyle=orthogonalEdgeStyle;rounded=0;orthogonalLoop=1;jettySize=auto;html=1;exitX=1;exitY=0.5;exitDx=0;exitDy=0;entryX=0;entryY=0.5;entryDx=0;entryDy=0;" edge="1" parent="1" source="ORX7oJTABNwnEh1Alo0J-8" target="ORX7oJTABNwnEh1Alo0J-16">
          <mxGeometry relative="1" as="geometry" />
        </mxCell>
        <mxCell id="ORX7oJTABNwnEh1Alo0J-8" value="apisix" style="swimlane;whiteSpace=wrap;html=1;" vertex="1" parent="1">
          <mxGeometry x="210" y="85" width="230" height="230" as="geometry" />
        </mxCell>
        <mxCell id="ORX7oJTABNwnEh1Alo0J-9" value="&lt;span style=&quot;color: rgba(0, 0, 0, 0.85); font-family: -apple-system, BlinkMacSystemFont, &amp;quot;Segoe UI&amp;quot;, Roboto, &amp;quot;Helvetica Neue&amp;quot;, Arial, &amp;quot;Noto Sans&amp;quot;, sans-serif, &amp;quot;Apple Color Emoji&amp;quot;, &amp;quot;Segoe UI Emoji&amp;quot;, &amp;quot;Segoe UI Symbol&amp;quot;, &amp;quot;Noto Color Emoji&amp;quot;; font-size: 14px; text-align: left; background-color: rgb(255, 255, 255);&quot;&gt;request-id插件&lt;/span&gt;&lt;div&gt;&lt;span style=&quot;color: rgba(0, 0, 0, 0.85); font-family: -apple-system, BlinkMacSystemFont, &amp;quot;Segoe UI&amp;quot;, Roboto, &amp;quot;Helvetica Neue&amp;quot;, Arial, &amp;quot;Noto Sans&amp;quot;, sans-serif, &amp;quot;Apple Color Emoji&amp;quot;, &amp;quot;Segoe UI Emoji&amp;quot;, &amp;quot;Segoe UI Symbol&amp;quot;, &amp;quot;Noto Color Emoji&amp;quot;; font-size: 14px; text-align: left; background-color: rgb(255, 255, 255);&quot;&gt;生成临时链路ID&lt;/span&gt;&lt;/div&gt;" style="whiteSpace=wrap;html=1;" vertex="1" parent="ORX7oJTABNwnEh1Alo0J-8">
          <mxGeometry x="20" y="35" width="190" height="55" as="geometry" />
        </mxCell>
        <mxCell id="ORX7oJTABNwnEh1Alo0J-11" value="日志ES&lt;div&gt;收集插件&lt;/div&gt;" style="rounded=0;whiteSpace=wrap;html=1;" vertex="1" parent="ORX7oJTABNwnEh1Alo0J-8">
          <mxGeometry x="20" y="105" width="90" height="115" as="geometry" />
        </mxCell>
        <mxCell id="ORX7oJTABNwnEh1Alo0J-12" value="日志CK&lt;div&gt;收集插件&lt;/div&gt;" style="rounded=0;whiteSpace=wrap;html=1;" vertex="1" parent="ORX7oJTABNwnEh1Alo0J-8">
          <mxGeometry x="120" y="105" width="90" height="115" as="geometry" />
        </mxCell>
        <mxCell id="ORX7oJTABNwnEh1Alo0J-13" style="edgeStyle=orthogonalEdgeStyle;rounded=0;orthogonalLoop=1;jettySize=auto;html=1;exitX=0.5;exitY=1;exitDx=0;exitDy=0;entryX=0;entryY=0.5;entryDx=0;entryDy=0;" edge="1" parent="1" source="ORX7oJTABNwnEh1Alo0J-11" target="ORX7oJTABNwnEh1Alo0J-2">
          <mxGeometry relative="1" as="geometry" />
        </mxCell>
        <mxCell id="ORX7oJTABNwnEh1Alo0J-14" style="edgeStyle=orthogonalEdgeStyle;rounded=0;orthogonalLoop=1;jettySize=auto;html=1;exitX=0.5;exitY=1;exitDx=0;exitDy=0;entryX=0;entryY=0.5;entryDx=0;entryDy=0;" edge="1" parent="1" source="ORX7oJTABNwnEh1Alo0J-12" target="ORX7oJTABNwnEh1Alo0J-2">
          <mxGeometry relative="1" as="geometry" />
        </mxCell>
        <mxCell id="ORX7oJTABNwnEh1Alo0J-18" style="edgeStyle=orthogonalEdgeStyle;rounded=0;orthogonalLoop=1;jettySize=auto;html=1;exitX=0.5;exitY=1;exitDx=0;exitDy=0;entryX=0.5;entryY=0;entryDx=0;entryDy=0;" edge="1" parent="1" source="ORX7oJTABNwnEh1Alo0J-16" target="ORX7oJTABNwnEh1Alo0J-2">
          <mxGeometry relative="1" as="geometry" />
        </mxCell>
        <mxCell id="ORX7oJTABNwnEh1Alo0J-22" style="edgeStyle=orthogonalEdgeStyle;rounded=0;orthogonalLoop=1;jettySize=auto;html=1;exitX=1;exitY=0.5;exitDx=0;exitDy=0;entryX=0;entryY=0.5;entryDx=0;entryDy=0;" edge="1" parent="1" source="ORX7oJTABNwnEh1Alo0J-16" target="ORX7oJTABNwnEh1Alo0J-20">
          <mxGeometry relative="1" as="geometry" />
        </mxCell>
        <mxCell id="ORX7oJTABNwnEh1Alo0J-16" value="pinpoint" style="swimlane;whiteSpace=wrap;html=1;" vertex="1" parent="1">
          <mxGeometry x="470" y="82.5" width="230" height="235" as="geometry" />
        </mxCell>
        <mxCell id="ORX7oJTABNwnEh1Alo0J-17" value="&lt;font style=&quot;font-size: 15px;&quot;&gt;pinpoint的traceID&lt;/font&gt;&lt;div&gt;&lt;font style=&quot;font-size: 15px;&quot;&gt;绑定&lt;/font&gt;&lt;/div&gt;&lt;div&gt;&lt;font style=&quot;font-size: 15px;&quot;&gt;apisixt的raceID&lt;/font&gt;&lt;/div&gt;&lt;div&gt;&lt;font style=&quot;font-size: 15px;&quot;&gt;&lt;br&gt;&lt;/font&gt;&lt;/div&gt;&lt;div&gt;&lt;font style=&quot;font-size: 15px;&quot;&gt;并打印日志&lt;/font&gt;&lt;/div&gt;" style="text;html=1;align=center;verticalAlign=middle;whiteSpace=wrap;rounded=0;" vertex="1" parent="ORX7oJTABNwnEh1Alo0J-16">
          <mxGeometry x="10" y="35" width="210" height="185" as="geometry" />
        </mxCell>
        <mxCell id="ORX7oJTABNwnEh1Alo0J-21" style="edgeStyle=orthogonalEdgeStyle;rounded=0;orthogonalLoop=1;jettySize=auto;html=1;exitX=0.5;exitY=1;exitDx=0;exitDy=0;entryX=0.5;entryY=0;entryDx=0;entryDy=0;" edge="1" parent="1" source="ORX7oJTABNwnEh1Alo0J-20" target="ORX7oJTABNwnEh1Alo0J-2">
          <mxGeometry relative="1" as="geometry" />
        </mxCell>
        <mxCell id="ORX7oJTABNwnEh1Alo0J-28" style="edgeStyle=orthogonalEdgeStyle;rounded=0;orthogonalLoop=1;jettySize=auto;html=1;exitX=1;exitY=0.5;exitDx=0;exitDy=0;entryX=0;entryY=0.5;entryDx=0;entryDy=0;" edge="1" parent="1" source="ORX7oJTABNwnEh1Alo0J-20" target="ORX7oJTABNwnEh1Alo0J-23">
          <mxGeometry relative="1" as="geometry" />
        </mxCell>
        <mxCell id="ORX7oJTABNwnEh1Alo0J-20" value="java日志打印" style="rounded=0;whiteSpace=wrap;html=1;" vertex="1" parent="1">
          <mxGeometry x="740" y="141.25" width="150" height="117.5" as="geometry" />
        </mxCell>
        <mxCell id="ORX7oJTABNwnEh1Alo0J-27" style="edgeStyle=orthogonalEdgeStyle;rounded=0;orthogonalLoop=1;jettySize=auto;html=1;exitX=0.5;exitY=1;exitDx=0;exitDy=0;entryX=0.5;entryY=0;entryDx=0;entryDy=0;" edge="1" parent="1" source="ORX7oJTABNwnEh1Alo0J-23" target="ORX7oJTABNwnEh1Alo0J-24">
          <mxGeometry relative="1" as="geometry" />
        </mxCell>
        <mxCell id="ORX7oJTABNwnEh1Alo0J-23" value="pinpoint生成链路日志" style="rounded=0;whiteSpace=wrap;html=1;" vertex="1" parent="1">
          <mxGeometry x="940" y="141.25" width="160" height="118.75" as="geometry" />
        </mxCell>
        <mxCell id="ORX7oJTABNwnEh1Alo0J-24" value="查询：&lt;div&gt;各方日志通过链路ID串联&lt;/div&gt;" style="rounded=0;whiteSpace=wrap;html=1;" vertex="1" parent="1">
          <mxGeometry x="915" y="590" width="210" height="150" as="geometry" />
        </mxCell>
      </root>
    </mxGraphModel>
  </diagram>
</mxfile>
